<mxfile host="Electron" modified="2024-05-07T11:34:32.112Z" agent="Mozilla/5.0 (Windows NT 10.0; Win64; x64) AppleWebKit/537.36 (KHTML, like Gecko) draw.io/24.1.0 Chrome/120.0.6099.109 Electron/28.1.0 Safari/537.36" etag="_hwwDTmI823MFqRqybET" version="24.1.0" type="device">
  <diagram name="Pagina-1" id="JchQYPVvhnWy8eB9Cnfu">
    <mxGraphModel dx="1036" dy="614" grid="1" gridSize="10" guides="1" tooltips="1" connect="1" arrows="1" fold="1" page="1" pageScale="1" pageWidth="827" pageHeight="1169" math="0" shadow="0">
      <root>
        <mxCell id="0" />
        <mxCell id="1" parent="0" />
        <mxCell id="d3nvYl6YIFsvPWVlQR6U-3" value="&lt;h1 style=&quot;margin-top: 0px;&quot;&gt;Diagramma ER ChatCumStaj&lt;/h1&gt;&lt;p&gt;&lt;br&gt;&lt;/p&gt;" style="text;html=1;whiteSpace=wrap;overflow=hidden;rounded=0;" vertex="1" parent="1">
          <mxGeometry x="40" y="10" width="360" height="40" as="geometry" />
        </mxCell>
        <mxCell id="d3nvYl6YIFsvPWVlQR6U-22" style="edgeStyle=orthogonalEdgeStyle;rounded=0;orthogonalLoop=1;jettySize=auto;html=1;entryX=0;entryY=0.5;entryDx=0;entryDy=0;" edge="1" parent="1" source="d3nvYl6YIFsvPWVlQR6U-4" target="d3nvYl6YIFsvPWVlQR6U-6">
          <mxGeometry relative="1" as="geometry" />
        </mxCell>
        <mxCell id="d3nvYl6YIFsvPWVlQR6U-23" style="edgeStyle=orthogonalEdgeStyle;rounded=0;orthogonalLoop=1;jettySize=auto;html=1;entryX=0;entryY=0.5;entryDx=0;entryDy=0;" edge="1" parent="1" source="d3nvYl6YIFsvPWVlQR6U-4" target="d3nvYl6YIFsvPWVlQR6U-7">
          <mxGeometry relative="1" as="geometry" />
        </mxCell>
        <mxCell id="d3nvYl6YIFsvPWVlQR6U-24" style="edgeStyle=orthogonalEdgeStyle;rounded=0;orthogonalLoop=1;jettySize=auto;html=1;entryX=0;entryY=0.5;entryDx=0;entryDy=0;" edge="1" parent="1" source="d3nvYl6YIFsvPWVlQR6U-4" target="d3nvYl6YIFsvPWVlQR6U-17">
          <mxGeometry relative="1" as="geometry" />
        </mxCell>
        <mxCell id="d3nvYl6YIFsvPWVlQR6U-36" style="edgeStyle=orthogonalEdgeStyle;rounded=0;orthogonalLoop=1;jettySize=auto;html=1;entryX=0.5;entryY=0;entryDx=0;entryDy=0;" edge="1" parent="1" source="d3nvYl6YIFsvPWVlQR6U-4" target="d3nvYl6YIFsvPWVlQR6U-18">
          <mxGeometry relative="1" as="geometry" />
        </mxCell>
        <mxCell id="d3nvYl6YIFsvPWVlQR6U-4" value="MESSAGGIO" style="rounded=0;whiteSpace=wrap;html=1;" vertex="1" parent="1">
          <mxGeometry x="80" y="200" width="120" height="60" as="geometry" />
        </mxCell>
        <mxCell id="d3nvYl6YIFsvPWVlQR6U-6" value="" style="ellipse;whiteSpace=wrap;html=1;aspect=fixed;" vertex="1" parent="1">
          <mxGeometry x="180" y="125" width="20" height="20" as="geometry" />
        </mxCell>
        <mxCell id="d3nvYl6YIFsvPWVlQR6U-7" value="" style="ellipse;whiteSpace=wrap;html=1;aspect=fixed;" vertex="1" parent="1">
          <mxGeometry x="180" y="160" width="20" height="20" as="geometry" />
        </mxCell>
        <mxCell id="d3nvYl6YIFsvPWVlQR6U-8" value="dati" style="text;html=1;align=center;verticalAlign=middle;whiteSpace=wrap;rounded=0;" vertex="1" parent="1">
          <mxGeometry x="190" y="120" width="60" height="30" as="geometry" />
        </mxCell>
        <mxCell id="d3nvYl6YIFsvPWVlQR6U-25" style="edgeStyle=orthogonalEdgeStyle;rounded=0;orthogonalLoop=1;jettySize=auto;html=1;entryX=1;entryY=0.5;entryDx=0;entryDy=0;" edge="1" parent="1" source="d3nvYl6YIFsvPWVlQR6U-9" target="d3nvYl6YIFsvPWVlQR6U-17">
          <mxGeometry relative="1" as="geometry" />
        </mxCell>
        <mxCell id="d3nvYl6YIFsvPWVlQR6U-26" style="edgeStyle=orthogonalEdgeStyle;rounded=0;orthogonalLoop=1;jettySize=auto;html=1;" edge="1" parent="1" source="d3nvYl6YIFsvPWVlQR6U-9">
          <mxGeometry relative="1" as="geometry">
            <mxPoint x="450" y="230" as="targetPoint" />
          </mxGeometry>
        </mxCell>
        <mxCell id="d3nvYl6YIFsvPWVlQR6U-32" style="edgeStyle=orthogonalEdgeStyle;rounded=0;orthogonalLoop=1;jettySize=auto;html=1;entryX=0;entryY=0.5;entryDx=0;entryDy=0;" edge="1" parent="1" source="d3nvYl6YIFsvPWVlQR6U-9" target="d3nvYl6YIFsvPWVlQR6U-10">
          <mxGeometry relative="1" as="geometry" />
        </mxCell>
        <mxCell id="d3nvYl6YIFsvPWVlQR6U-33" style="edgeStyle=orthogonalEdgeStyle;rounded=0;orthogonalLoop=1;jettySize=auto;html=1;entryX=0;entryY=0.5;entryDx=0;entryDy=0;" edge="1" parent="1" source="d3nvYl6YIFsvPWVlQR6U-9" target="d3nvYl6YIFsvPWVlQR6U-11">
          <mxGeometry relative="1" as="geometry" />
        </mxCell>
        <mxCell id="d3nvYl6YIFsvPWVlQR6U-42" style="edgeStyle=orthogonalEdgeStyle;rounded=0;orthogonalLoop=1;jettySize=auto;html=1;entryX=0.5;entryY=0;entryDx=0;entryDy=0;" edge="1" parent="1" source="d3nvYl6YIFsvPWVlQR6U-9" target="d3nvYl6YIFsvPWVlQR6U-19">
          <mxGeometry relative="1" as="geometry" />
        </mxCell>
        <mxCell id="d3nvYl6YIFsvPWVlQR6U-43" style="edgeStyle=orthogonalEdgeStyle;rounded=0;orthogonalLoop=1;jettySize=auto;html=1;" edge="1" parent="1" source="d3nvYl6YIFsvPWVlQR6U-9">
          <mxGeometry relative="1" as="geometry">
            <mxPoint x="650" y="440" as="targetPoint" />
          </mxGeometry>
        </mxCell>
        <mxCell id="d3nvYl6YIFsvPWVlQR6U-9" value="UTENTE" style="rounded=0;whiteSpace=wrap;html=1;" vertex="1" parent="1">
          <mxGeometry x="590" y="200" width="120" height="60" as="geometry" />
        </mxCell>
        <mxCell id="d3nvYl6YIFsvPWVlQR6U-10" value="" style="ellipse;whiteSpace=wrap;html=1;aspect=fixed;fillColor=#231010;" vertex="1" parent="1">
          <mxGeometry x="670" y="125" width="20" height="20" as="geometry" />
        </mxCell>
        <mxCell id="d3nvYl6YIFsvPWVlQR6U-11" value="" style="ellipse;whiteSpace=wrap;html=1;aspect=fixed;" vertex="1" parent="1">
          <mxGeometry x="670" y="160" width="20" height="20" as="geometry" />
        </mxCell>
        <mxCell id="d3nvYl6YIFsvPWVlQR6U-39" style="edgeStyle=orthogonalEdgeStyle;rounded=0;orthogonalLoop=1;jettySize=auto;html=1;entryX=1;entryY=0.5;entryDx=0;entryDy=0;" edge="1" parent="1" source="d3nvYl6YIFsvPWVlQR6U-12" target="d3nvYl6YIFsvPWVlQR6U-18">
          <mxGeometry relative="1" as="geometry" />
        </mxCell>
        <mxCell id="d3nvYl6YIFsvPWVlQR6U-40" style="edgeStyle=orthogonalEdgeStyle;rounded=0;orthogonalLoop=1;jettySize=auto;html=1;" edge="1" parent="1" source="d3nvYl6YIFsvPWVlQR6U-12">
          <mxGeometry relative="1" as="geometry">
            <mxPoint x="200" y="490" as="targetPoint" />
          </mxGeometry>
        </mxCell>
        <mxCell id="d3nvYl6YIFsvPWVlQR6U-44" style="edgeStyle=orthogonalEdgeStyle;rounded=0;orthogonalLoop=1;jettySize=auto;html=1;entryX=0;entryY=0.5;entryDx=0;entryDy=0;" edge="1" parent="1" source="d3nvYl6YIFsvPWVlQR6U-12" target="d3nvYl6YIFsvPWVlQR6U-19">
          <mxGeometry relative="1" as="geometry" />
        </mxCell>
        <mxCell id="d3nvYl6YIFsvPWVlQR6U-45" style="edgeStyle=orthogonalEdgeStyle;rounded=0;orthogonalLoop=1;jettySize=auto;html=1;" edge="1" parent="1" source="d3nvYl6YIFsvPWVlQR6U-12">
          <mxGeometry relative="1" as="geometry">
            <mxPoint x="600" y="490" as="targetPoint" />
          </mxGeometry>
        </mxCell>
        <mxCell id="d3nvYl6YIFsvPWVlQR6U-53" style="edgeStyle=orthogonalEdgeStyle;rounded=0;orthogonalLoop=1;jettySize=auto;html=1;entryX=0;entryY=0.5;entryDx=0;entryDy=0;" edge="1" parent="1" source="d3nvYl6YIFsvPWVlQR6U-12" target="d3nvYl6YIFsvPWVlQR6U-13">
          <mxGeometry relative="1" as="geometry" />
        </mxCell>
        <mxCell id="d3nvYl6YIFsvPWVlQR6U-54" style="edgeStyle=orthogonalEdgeStyle;rounded=0;orthogonalLoop=1;jettySize=auto;html=1;entryX=0;entryY=0.5;entryDx=0;entryDy=0;" edge="1" parent="1" source="d3nvYl6YIFsvPWVlQR6U-12" target="d3nvYl6YIFsvPWVlQR6U-14">
          <mxGeometry relative="1" as="geometry" />
        </mxCell>
        <mxCell id="d3nvYl6YIFsvPWVlQR6U-55" style="edgeStyle=orthogonalEdgeStyle;rounded=0;orthogonalLoop=1;jettySize=auto;html=1;entryX=0;entryY=0.5;entryDx=0;entryDy=0;" edge="1" parent="1" source="d3nvYl6YIFsvPWVlQR6U-12" target="d3nvYl6YIFsvPWVlQR6U-15">
          <mxGeometry relative="1" as="geometry" />
        </mxCell>
        <mxCell id="d3nvYl6YIFsvPWVlQR6U-12" value="STANZA" style="rounded=0;whiteSpace=wrap;html=1;" vertex="1" parent="1">
          <mxGeometry x="340" y="460" width="120" height="60" as="geometry" />
        </mxCell>
        <mxCell id="d3nvYl6YIFsvPWVlQR6U-13" value="" style="ellipse;whiteSpace=wrap;html=1;aspect=fixed;" vertex="1" parent="1">
          <mxGeometry x="420" y="360" width="20" height="20" as="geometry" />
        </mxCell>
        <mxCell id="d3nvYl6YIFsvPWVlQR6U-14" value="" style="ellipse;whiteSpace=wrap;html=1;aspect=fixed;" vertex="1" parent="1">
          <mxGeometry x="420" y="390" width="20" height="20" as="geometry" />
        </mxCell>
        <mxCell id="d3nvYl6YIFsvPWVlQR6U-15" value="" style="ellipse;whiteSpace=wrap;html=1;aspect=fixed;fillColor=#1d1111;" vertex="1" parent="1">
          <mxGeometry x="420" y="420" width="20" height="20" as="geometry" />
        </mxCell>
        <mxCell id="d3nvYl6YIFsvPWVlQR6U-17" value="Send" style="rhombus;whiteSpace=wrap;html=1;" vertex="1" parent="1">
          <mxGeometry x="360" y="190" width="80" height="80" as="geometry" />
        </mxCell>
        <mxCell id="d3nvYl6YIFsvPWVlQR6U-18" value="Appartenere" style="rhombus;whiteSpace=wrap;html=1;" vertex="1" parent="1">
          <mxGeometry x="90" y="440" width="100" height="100" as="geometry" />
        </mxCell>
        <mxCell id="d3nvYl6YIFsvPWVlQR6U-19" value="Risiedere" style="rhombus;whiteSpace=wrap;html=1;" vertex="1" parent="1">
          <mxGeometry x="610" y="450" width="80" height="80" as="geometry" />
        </mxCell>
        <mxCell id="d3nvYl6YIFsvPWVlQR6U-20" value="data&lt;span style=&quot;color: rgba(0, 0, 0, 0); font-family: monospace; font-size: 0px; text-align: start; text-wrap: nowrap;&quot;&gt;%3CmxGraphModel%3E%3Croot%3E%3CmxCell%20id%3D%220%22%2F%3E%3CmxCell%20id%3D%221%22%20parent%3D%220%22%2F%3E%3CmxCell%20id%3D%222%22%20value%3D%22dati%22%20style%3D%22text%3Bhtml%3D1%3Balign%3Dcenter%3BverticalAlign%3Dmiddle%3BwhiteSpace%3Dwrap%3Brounded%3D0%3B%22%20vertex%3D%221%22%20parent%3D%221%22%3E%3CmxGeometry%20x%3D%22180%22%20y%3D%2290%22%20width%3D%2260%22%20height%3D%2230%22%20as%3D%22geometry%22%2F%3E%3C%2FmxCell%3E%3C%2Froot%3E%3C%2FmxGraphModel%3E&lt;/span&gt;" style="text;html=1;align=center;verticalAlign=middle;whiteSpace=wrap;rounded=0;" vertex="1" parent="1">
          <mxGeometry x="190" y="155" width="60" height="30" as="geometry" />
        </mxCell>
        <mxCell id="d3nvYl6YIFsvPWVlQR6U-28" value="username" style="text;html=1;align=center;verticalAlign=middle;whiteSpace=wrap;rounded=0;" vertex="1" parent="1">
          <mxGeometry x="700" y="120" width="60" height="30" as="geometry" />
        </mxCell>
        <mxCell id="d3nvYl6YIFsvPWVlQR6U-29" value="" style="endArrow=none;html=1;rounded=0;" edge="1" parent="1">
          <mxGeometry width="50" height="50" relative="1" as="geometry">
            <mxPoint x="160" y="150" as="sourcePoint" />
            <mxPoint x="160" y="110" as="targetPoint" />
          </mxGeometry>
        </mxCell>
        <mxCell id="d3nvYl6YIFsvPWVlQR6U-30" value="" style="endArrow=none;html=1;rounded=0;" edge="1" parent="1">
          <mxGeometry width="50" height="50" relative="1" as="geometry">
            <mxPoint x="520" y="260" as="sourcePoint" />
            <mxPoint x="520" y="200" as="targetPoint" />
          </mxGeometry>
        </mxCell>
        <mxCell id="d3nvYl6YIFsvPWVlQR6U-31" value="password" style="text;html=1;align=center;verticalAlign=middle;whiteSpace=wrap;rounded=0;" vertex="1" parent="1">
          <mxGeometry x="700" y="154" width="60" height="30" as="geometry" />
        </mxCell>
        <mxCell id="d3nvYl6YIFsvPWVlQR6U-41" value="" style="endArrow=none;html=1;rounded=0;" edge="1" parent="1">
          <mxGeometry width="50" height="50" relative="1" as="geometry">
            <mxPoint x="90" y="320" as="sourcePoint" />
            <mxPoint x="190" y="320" as="targetPoint" />
          </mxGeometry>
        </mxCell>
        <mxCell id="d3nvYl6YIFsvPWVlQR6U-49" value="" style="endArrow=none;html=1;rounded=0;" edge="1" parent="1">
          <mxGeometry width="50" height="50" relative="1" as="geometry">
            <mxPoint x="520" y="520" as="sourcePoint" />
            <mxPoint x="520" y="460" as="targetPoint" />
          </mxGeometry>
        </mxCell>
        <mxCell id="d3nvYl6YIFsvPWVlQR6U-50" value="Titolo" style="text;html=1;align=center;verticalAlign=middle;whiteSpace=wrap;rounded=0;" vertex="1" parent="1">
          <mxGeometry x="430" y="355" width="60" height="30" as="geometry" />
        </mxCell>
        <mxCell id="d3nvYl6YIFsvPWVlQR6U-51" value="Descrizione" style="text;html=1;align=center;verticalAlign=middle;whiteSpace=wrap;rounded=0;" vertex="1" parent="1">
          <mxGeometry x="450" y="385" width="60" height="30" as="geometry" />
        </mxCell>
        <mxCell id="d3nvYl6YIFsvPWVlQR6U-52" value="Codice" style="text;html=1;align=center;verticalAlign=middle;whiteSpace=wrap;rounded=0;" vertex="1" parent="1">
          <mxGeometry x="440" y="415" width="60" height="30" as="geometry" />
        </mxCell>
      </root>
    </mxGraphModel>
  </diagram>
</mxfile>
